<svg width="43" height="32" viewBox="0 0 43 32" fill="none" xmlns="http://www.w3.org/2000/svg">
<path d="M28.5714 18.4286C28.5714 18.6295 28.4821 18.808 28.3482 18.9643L20.5134 26.7991C20.3795 26.933 20.1786 27 20 27C19.7991 27 19.6205 26.933 19.4866 26.7991L11.6295 18.942C11.4955 18.808 11.4286 18.6071 11.4286 18.4286C11.4286 18.0491 11.7411 17.7143 12.1429 17.7143H17.1429V9.85714C17.1429 9.47768 17.4777 9.14286 17.8571 9.14286H22.1429C22.5223 9.14286 22.8571 9.47768 22.8571 9.85714V17.7143H27.8571C28.2589 17.7143 28.5714 18.0268 28.5714 18.4286ZM42.8571 23.4286C42.8571 19.4554 40.1116 15.9955 36.2277 15.0804C36.8304 14.1652 37.1429 13.0937 37.1429 12C37.1429 8.85268 34.5759 6.28571 31.4286 6.28571C30.067 6.28571 28.75 6.77679 27.7232 7.66964C25.9598 3.38393 21.7857 0.571427 17.1429 0.571427C10.8259 0.571427 5.71429 5.68304 5.71429 12C5.71429 12.3125 5.73661 12.625 5.75893 12.9598C2.25446 14.5893 0 18.1161 0 22C0 27.5134 4.48661 32 10 32H34.2857C39.0179 32 42.8571 28.1607 42.8571 23.4286Z" fill="#CCCCCC"/>
</svg>
